<?xml version="1.0" encoding="utf-8"?>
<!-- Generator: Adobe Illustrator 14.0.0, SVG Export Plug-In . SVG Version: 6.00 Build 43363)  -->
<!DOCTYPE svg PUBLIC "-//W3C//DTD SVG 1.1//EN" "http://www.w3.org/Graphics/SVG/1.1/DTD/svg11.dtd">
<svg version="1.1" id="Layer_1" xmlns="http://www.w3.org/2000/svg" xmlns:xlink="http://www.w3.org/1999/xlink" x="0px" y="0px"
	 width="250px" height="195px" viewBox="0 0 250 195" enable-background="new 0 0 250 195" xml:space="preserve">
<g>
	<path fill="#EF4043" d="M232.551,56.181c0.167-0.447,8.587-23.05,8.587-23.05h-24.204c-6.432-15.238-19.123-24.123-30.49-25.416
		c8.257,15.309,3.841,25.467-11.4,25.375h-18.457l-7.99-8.38h-45.547l6.523,8.192c-6.113-0.508-11.52-2.212-14.204-7.39
		c-2.544-4.906-2.3-12.514,5.104-20.94c-13.8,1.067-25.738,8.415-33.923,20.371H35.227c0,0,8.026,12.247,9.259,14.136l-12.67,33.39
		L8.075,82.7l48.101-0.003c0.04,0.25,0.074,0.492,0.114,0.741L5,87.138l53.611,7.541c0.264,1.031,0.541,2.062,0.83,3.104
		l-39.503,3.885l42.489,5.486c0.414,1.176,0.852,2.352,1.304,3.53L32.53,115.53l34.503,3.1c2.778,6.195,6.064,12.518,9.905,18.941
		l-46.536,0.051l17.925,14.873l-5.121,13.393h53.944c6.765,8.131,14.44,16.334,23.103,24.541
		c11.5-8.398,21.812-16.584,31.035-24.541h47.482c7.125,0,11.328-1.624,14.568-10.499l6.185-16.215l-27.145-15.567
		c11.585-14.858,19.134-28.551,23.579-40.914h3.964c14.901,0.062,16.984-4.524,20.139-13.249L245,56.181H232.551"/>
	<path fill="#231F20" d="M101.11,165.898c5.959,7.107,12.393,13.669,19.204,19.463c9.464-6.142,18.343-12.67,26.582-19.463H101.11"
		/>
	<path fill="#231F20" d="M224.405,58.984c0.97-2.601,1.375-3.693,1.961-5.265h2.185l6.619-17.79h-21.896
		c-3.483-8.995-9.903-16.442-19.55-21.703c0,0,6.131,21.452-16.366,21.374c-5.798-0.021-14.092-0.029-22.953-0.036l-7.783-7.823
		h-36.876l5.879,7.823c-4.926,0-8,0.004-8,0.004c-18.86-0.007-20.519-15.727-16.303-24.534c-9.272,3.82-16.309,9.56-21.371,16.707
		H42.724l7.2,10.986L36.279,74.612L21.202,79.89H60.76c0.29,2.054,0.646,4.126,1.045,6.213l-37.847,1.534l87.907,10.648
		l-20.649,0.98L63.95,95.431c0.445,1.682,0.922,3.368,1.432,5.06l-28.948,1.374l82.901,6.869l-26.172,2.361l-25.373-3.27
		c0.633,1.79,1.295,3.588,2,5.375l-18.553,1.671l75.204,3.356l5.067,6.655l-5.456,0.977l-2.537-3.379l-51.53-3.935
		c2.74,6.384,5.892,12.717,9.404,18.901h109.667c0,0-11.248-12.246-14.076-15.176l0.926-2.214c0,0-1.454-0.557-1.815-1.512
		c-0.365-0.948,2.777-3.089,3.848-3.878l-7.081-7.36l1.103-3.323c0,0-2.246-3.22-3.316-4.174c0,0,9.758-1.765,9.683-6.59
		c-0.055-3.519-4.721-7.183-8.279-9.115c17.85,7.907,10.634,14.331,3.526,16.587c0.531,0.753,1.042,1.534,1.52,2.352l-1.704,4.202
		l8.322,7.863l-4.872,3.53l1.806,1.83l-1.306,2.076l19.827,17.933l-115.95,0.108c0,0.007,0,0.007,0,0.007H38.006l13.833,11.317
		l-4.312,10.999h51.13c0.003,0.004,0.011,0.015,0.014,0.021h51.775c0.008-0.007,0.015-0.018,0.022-0.021h48.534
		c4.663-0.043,8.742-1.443,11.079-7.335l5.736-14.981l-28.617-16.142c11.477-15.097,19.843-30.306,24.609-44.563
		c1.469,0,2.955,0,4.435,0c12.84,0.011,15.69-2.366,18.88-10.388l3.914-10.518H224.405"/>
	<path fill="#0B7AC0" d="M122.037,83.658c0,0,24.077-3.074,41.721,6.691c1.335-3.32-4.138-7.979-4.138-7.979
		c14.691,5.859,10.481,12.102,10.481,12.102c2.04-0.575,9.506-2.503-1.28-11.704c0.724,0.137,1.902,0.615,3.23,1.338
		c17.842,7.907,10.633,14.327,3.526,16.584c0.531,0.756,1.041,1.54,1.519,2.354l-1.707,4.199l8.319,7.863l-4.869,3.533l1.809,1.83
		l-1.306,2.076l1.537,1.389c12.978-16.804,20.465-32.031,24.776-44.046c-9.831-0.004-17.828,0.003-17.828,0.003H68.162
		c0.186,1.855,0.434,3.837,0.745,5.921L122.037,83.658"/>
	<path fill="#0B7AC0" d="M70.954,96.415c0.29,1.233,0.604,2.488,0.94,3.765l19.323-0.911L70.954,96.415"/>
	<path fill="#0B7AC0" d="M74.441,108.68c0.432,1.31,0.895,2.633,1.385,3.975l17.335-1.563L74.441,108.68"/>
	<path fill="#0B7AC0" d="M123.518,122.481l-45.189-3.45c1.908,4.564,4.141,9.292,6.767,14.142l40.954-7.313L123.518,122.481"/>
	<path fill="#0B7AC0" d="M78.842,27.743h2.29l8.241,8.075c-1.64-1.993-5.667-7.802-4.441-15.589c0,0-4.078,2.629-7.229,7.514H78.842
		"/>
	<path fill="#0B7AC0" d="M201.471,35.93h4.612c-1.867-7.525-7.209-12.359-7.209-12.359c-0.028,5.608-2.528,9.793-4.662,12.359
		H201.471"/>
	<path fill="#0B7AC0" d="M210.966,143.829c-0.435,1.135-4.076,10.644-4.076,10.644c-1.747,4.395-4.42,5.299-8.164,5.335H51.946
		c0.721-1.66,3.789-8.698,3.789-8.698s-6.856-5.386-9.267-7.28H210.966"/>
	<path fill="#0B7AC0" d="M108.092,165.898c3.855,4.402,8.065,8.825,12.685,13.245c6.442-4.416,12.425-8.843,17.981-13.245H108.092"
		/>
	<path fill="#EF4043" d="M163.291,90.093c-17.6-9.455-41.256-6.435-41.256-6.435c24.824,0,38.688,8.713,39.01,8.916
		C162.492,91.98,162.998,91.12,163.291,90.093"/>
	<path fill="#231F20" d="M176.981,122.272l0.926-2.222c0,0-1.454-0.549-1.815-1.501c-0.362-0.951,2.777-3.088,3.848-3.881
		l-7.081-7.36l1.103-3.323c0,0-2.246-3.22-3.316-4.174c0,0,9.758-1.765,9.683-6.594c-0.069-4.829-8.84-9.943-11.506-10.449
		c10.786,9.205,3.316,11.125,1.277,11.701c0,0,4.21-6.239-10.479-12.099c9.437,5.667,9.216,11.234,3.259,14.193
		c-5.957,2.966-13.22,1.577-13.22,1.577c-1.775-1.439-4.167-4.977,1.229-4.763c5.479,0.217,8.464-0.109,10.156-0.799
		c-0.321-0.21-14.186-8.919-39.01-8.919l-98.077,3.979l87.907,10.648l-75.43,3.581l82.901,6.872l-68.097,6.131l75.204,3.364
		l5.071,6.651l-51.919,9.27l1.792,3.295h109.67C191.058,137.448,179.813,125.198,176.981,122.272"/>
	<path fill="#159CD8" d="M174.211,125.903l-1.866-2.532l-5.505,0.789l-2.12,1.898l0.764-3.794l4.977-1.902
		c-5.668-9.187-18.865-13.614-18.865-13.614l-3.071-4.593l9.332,1.646c-0.008-0.011-0.015-0.019-0.022-0.025
		c-0.817-0.962-1.612-1.852-2.423-2.681c0.007,0,0.015,0,0.015,0c-4.312-0.748-4.768-2.151-5.766-2.958c0,0,7.263,1.393,13.22-1.573
		c5.957-2.959,6.178-8.521-3.259-14.193c0,0,4.413,4.413,3.841,7.024c-0.571,2.619-1.385,4.427-12.572,3.982
		c-2.64-0.105-3.414,0.69-3.31,1.692v0.004c0.008,0.076,0.022,0.148,0.036,0.224c-9.559-4.716-24.925-5.31-62.57-6.124
		c0,0,25.074,1.266,42.582,3.165c17.504,1.899,17.848,9.027,17.848,9.027l-5.772-1.584l4.698,8.865l-18.198-6.492
		c7.358,11.4,11.059,12.666,12.798,12.666c1.74,0,1.964-2.058,1.964-2.058l10.279,3.164l-7.631,2.536
		c5.208,9.501,9.512,10.131,9.512,10.131l-54.134,6.185l74.077-3.017l-4.397-5.859H174.211"/>
	<polygon fill="#0B7AC0" points="169.089,108.412 175.383,114.112 171.209,114.662 	"/>
	<path fill="#EF4043" d="M156.879,106.344l8.745,1.765c0,0,0.618,1.31-0.463,2.047L156.879,106.344"/>
	<polygon fill="#0B7AC0" points="162.777,123.194 161.718,127.415 153.124,128.598 98.994,134.779 173.067,131.763 168.67,125.903 
		174.211,125.903 172.345,123.371 166.84,124.16 164.72,126.063 165.479,122.261 	"/>
	<path fill="#0B7AC0" d="M167.794,121.379l2.666-1.017c-5.671-9.184-18.862-13.617-18.862-13.617S162.817,112.293,167.794,121.379"
		/>
	<path fill="#0B7AC0" d="M156.604,101.272c-0.431-0.051-0.817-0.116-1.189-0.178c0.807,0.829,1.602,1.719,2.412,2.681
		c0.015,0.007,0.019,0.015,0.029,0.029l5.042,0.882c-0.59-1.298-1.35-2.495-2.25-3.595
		C159.396,101.363,158.047,101.461,156.604,101.272"/>
	<path fill="#0B7AC0" d="M149.207,93.463c-10.225-3.997-23.11-4.706-30.136-4.608c-11.238,0.159-34.026,0.318-34.026,0.318
		c37.648,0.814,53.014,1.407,62.57,6.12C147.432,94.451,147.782,93.717,149.207,93.463"/>
	<path fill="#0B7AC0" d="M158.495,58.691h-1.32c0.42-0.833,1.208-2.378,2.42-4.756C159.049,56.306,158.607,58.228,158.495,58.691
		 M174.887,40.776h-22.182c0,0,1.045,4.684,1.157,5.185c-0.282,0.494-13.228,23.327-13.361,23.559
		c-0.198,0.166-6.568,5.53-6.568,5.53h14.916c0,0,3.899-7.66,4.279-8.413h3.53c-0.337,1.458-1.671,7.234-1.671,7.234
		c-0.019,0.007-0.076,0.257-0.076,0.257l-0.203,0.922h5.502c5.979,0.025,7.559-1.613,8.836-5.31
		c-0.008,0.018,0.658-1.769,0.658-1.769l0.384-1.023h-2.844c0.282-1.563,3.067-16.961,3.271-18.075h2.444l3.013-8.097H174.887z"/>
	<path fill="#0B7AC0" d="M137.582,41.809c-0.604,1.619-3.454,9.263-3.758,10.082h-2.85c0.604-1.619,3.45-9.263,3.754-10.082H137.582
		 M144.986,32.588h-26.134c0,0,3.13,5.255,3.456,5.8c-0.248,0.664-11.345,30.459-11.482,30.825c-0.291,0.242-6.97,5.837-6.97,5.837
		h15.777c4.233-0.021,6.863-1.703,8.275-5.295c0.004-0.015,1.257-3.375,1.257-3.375h-3.586c0.499-1.346,1.696-4.557,1.955-5.27
		h7.389c3.267,0.015,9.035-0.781,10.984-6.268c-0.003,0.011,5.697-15.295,5.697-15.295l0.17-0.456l-6.475-6.503H144.986z"/>
	<path fill="#0B7AC0" d="M71.073,41.809c-0.682,1.841-8.604,23.106-8.941,24.014h-3.441c0.689-1.841,8.612-23.106,8.948-24.014
		H71.073 M78.842,32.588h-27.15c0,0,3.259,4.977,3.626,5.532c-0.268,0.704-13.931,36.93-13.931,36.93h22.644
		c5.417,0.163,9.042-2,10.753-6.423c0.004-0.011,10.999-29.539,10.999-29.539l-6.63-6.5H78.842z"/>
	<path fill="#FFFFFF" d="M72.164,40.295H66.59L56.516,67.339h6.666l10.071-27.043H72.164 M78.537,34.1
		c0.385,0.378,4.89,4.792,5.487,5.378c-0.331,0.892-10.652,28.609-10.652,28.609c-1.476,3.809-4.52,5.595-9.315,5.451H43.574
		C44.301,71.603,57,37.934,57,37.934s-1.647-2.519-2.51-3.834H78.537z"/>
	<path fill="#FFFFFF" d="M138.668,40.295h-4.992l-4.879,13.107h6.076l4.883-13.107H138.668 M144.672,34.1
		c0.387,0.389,4.767,4.785,5.349,5.375c-0.317,0.854-5.533,14.851-5.533,14.851c-1.643,4.615-6.691,5.288-9.56,5.277h-8.44
		l-3.085,8.293h3.585c-0.241,0.647-0.488,1.324-0.488,1.324c-1.167,2.966-3.29,4.304-6.867,4.318h-11.616
		c1.615-1.353,4.089-3.421,4.089-3.421l11.871-31.879c0,0-1.654-2.781-2.463-4.138H144.672z"/>
	<path fill="#0B7AC0" d="M208.064,40.776H195.97c0,0-9.556,25.64-9.906,26.591h-2.608c0.706-1.884,9.903-26.591,9.903-26.591
		h-14.699c0,0,1.342,4.845,1.462,5.266c-0.167,0.452-8.825,23.684-8.825,23.684l5.236,5.324h10.461
		c3.656,0.037,8.178-1.587,9.447-5.259c-0.008,0.015,6.601-17.73,7.787-20.918h1.909l3.021-8.097H208.064"/>
	<path fill="#FFFFFF" d="M206.979,42.288c-0.499,1.33-1.628,4.371-1.896,5.075h-1.909l-8.16,21.918
		c-0.987,2.846-4.774,4.293-8.015,4.257h-9.838c-0.369-0.38-3.56-3.624-4.112-4.181c0.325-0.868,8.655-23.242,8.655-23.242
		s-0.724-2.633-1.057-3.827h10.532c-0.701,1.885-9.902,26.591-9.902,26.591h5.834c0,0,9.548-25.644,9.906-26.591H206.979"/>
	<path fill="#0B7AC0" d="M226.417,40.776h-15.799c0,0,1.346,4.845,1.461,5.27c-0.166,0.445-8.645,23.209-8.764,23.535
		c-0.246,0.228-5.813,5.469-5.813,5.469h20.993c7.639,0.015,9.889-3.19,11.176-6.662l1.7-4.557H220.97c0,0-1.049,2.807-1.316,3.537
		h-4.231c0.665-1.787,6.554-17.607,6.886-18.495h2.185l3.017-8.097H226.417"/>
	<path fill="#FFFFFF" d="M225.332,42.288c-0.492,1.33-1.635,4.371-1.889,5.075h-2.185l-8.015,21.517h7.458
		c0,0,1.049-2.81,1.316-3.537h7.176c-0.383,1.031-0.933,2.518-0.933,2.518c-1.273,3.418-3.422,5.686-9.766,5.678h-17.181
		c1.342-1.266,3.291-3.096,3.291-3.096l9.064-24.327c0,0-0.73-2.629-1.063-3.827H225.332"/>
	<path fill="#0B7AC0" d="M114.98,40.776H87.313c0,0,1.347,4.845,1.466,5.27c-0.167,0.448-8.644,23.209-8.764,23.535
		c-0.244,0.228-5.814,5.469-5.814,5.469h20.374c5.756,0.033,9.445-1.772,10.959-5.367c0.011-0.029,2.185-5.852,2.185-5.852H97.314
		c0,0-1.049,2.807-1.318,3.537h-3.886c0.53-1.417,2.011-5.4,2.286-6.142h6.859l2.859-7.675h-6.856
		c0.496-1.331,1.633-4.391,1.896-5.093h3.653c-0.3,0.799-1.011,2.718-1.011,2.718h10.398l3.875-10.4H114.98"/>
	<path fill="#FFFFFF" d="M113.89,42.288c-0.559,1.498-2.458,6.604-2.744,7.375h-7.178c0.297-0.792,1.015-2.716,1.015-2.716h-6.881
		l-3.022,8.116h6.856c-0.479,1.284-1.479,3.972-1.734,4.651h-6.856l-3.411,9.165h7.111c0,0,1.045-2.81,1.318-3.537h7.178
		c-0.474,1.259-1.411,3.783-1.411,3.783c-1.244,2.948-4.459,4.441-9.552,4.413H78.018c1.34-1.266,3.288-3.096,3.288-3.096
		l9.06-24.327c0,0-0.73-2.629-1.063-3.827H113.89"/>
	<path fill="#FFFFFF" d="M160.807,48.218l-6.102,11.984h4.995l2.763-11.984H160.807 M173.798,42.288
		c-0.491,1.33-1.627,4.371-1.888,5.075h-2.662l-3.812,21.097h2.474c-0.145,0.376-0.289,0.767-0.289,0.767
		c-0.955,2.777-1.772,4.336-7.408,4.311h-3.602c0.455-1.946,1.735-7.487,1.735-7.487l0.214-0.922h-6.358
		c0,0-3.903,7.661-4.282,8.409h-9.842c1.505-1.266,3.603-3.035,3.603-3.035l13.78-24.303c0,0-0.607-2.742-0.868-3.912H173.798z"/>
	<path fill="#FFFFFF" d="M65.012,155.153l0.898-2.246h2.085l-0.899,2.246H65.012 M71.462,153.171
		c0.056-0.734-0.488-1.226-1.358-1.414c1.092-0.116,2.043-0.73,2.604-1.577c0.629-1.266,1.383-3.609-0.445-3.595l-9.552,0.051
		l1.266,2.13l-2.528,6.305l-2.222,2.228l9.033-0.029c1.063,0,1.958-0.983,2.347-1.848L71.462,153.171z M66.733,150.859l0.808-2.011
		h2.043l-0.803,2.011H66.733z"/>
	<polygon fill="#FFFFFF" points="82.241,157.298 72.092,157.298 74.292,155.034 76.821,148.729 75.607,146.52 82.329,146.52 
		81.429,148.766 80.544,148.766 78.025,155.034 79.651,155.034 80.403,153.175 83.896,153.175 	"/>
	<path fill="#FFFFFF" d="M99.159,148.762h-0.865l-2.591,6.46c-0.367,0.911-1.678,2.076-2.922,2.076h-5.1
		c-1.244,0-1.781-0.911-1.367-1.946l2.641-6.59l-1.148-2.213h5.711l-3.414,8.521h2.007l3.414-8.521h4.52L99.159,148.762"/>
	<polygon fill="#FFFFFF" points="108.02,157.298 97.835,157.298 100.02,155.07 102.549,148.766 101.375,146.549 112.13,146.549 
		110.776,149.927 107.765,149.927 108.235,148.766 106.165,148.766 105.356,150.776 108.154,150.81 107.356,152.791 
		104.549,152.791 103.634,155.07 105.702,155.07 106.268,153.659 109.483,153.659 	"/>
	<path fill="#FFFFFF" d="M133.973,148.364c0.337-0.847-0.018-1.813-1.117-1.813l-9.418-0.032l1.199,2.242l-2.53,6.309l-2.185,2.228
		l8.693-0.029c0.985,0,2.057-0.684,2.382-1.482L133.973,148.364 M125.707,155.103l2.526-6.29h2.025l-2.522,6.29H125.707z"/>
	<polygon fill="#FFFFFF" points="142.899,157.298 132.714,157.298 134.896,155.07 137.427,148.766 136.248,146.549 147.012,146.549 
		145.651,149.927 142.643,149.927 143.109,148.766 141.036,148.766 140.233,150.776 143.033,150.81 142.237,152.791 
		139.424,152.791 138.512,155.07 140.581,155.07 141.146,153.659 144.356,153.659 	"/>
	<path fill="#FFFFFF" d="M160.503,157.298h-4.312l2.322-5.787l-4.688,4.326c-0.528-1.382-1.078-2.814-1.609-4.196l-2.269,5.657
		h-4.724l2.142-2.228l2.528-6.305l-1.161-2.246h5.433l1.396,4.622l4.992-4.622h4.177l-0.904,2.246l-0.831,0.032l-2.507,6.236h0.926
		L160.503,157.298"/>
	<path fill="#FFFFFF" d="M176.056,148.169c0.357-0.904-0.254-1.617-1.36-1.617h-4.84c-1.041,0-2.527,0.601-2.915,1.563l-3.081,7.672
		c-0.34,0.868,0.34,1.512,1.382,1.512h5.266c1.165,0,2.286-0.998,2.666-1.946L176.056,148.169 M167.729,155.103l2.528-6.29h1.964
		l-2.518,6.29H167.729z"/>
	<polygon fill="#FFFFFF" points="190.512,148.762 189.633,148.798 186.226,157.298 182.805,157.269 181.521,151.808 
		179.317,157.298 174.555,157.298 176.778,155.07 179.311,148.762 178.109,146.516 183.607,146.516 184.913,151.912 
		187.065,146.549 191.401,146.549 	"/>
	<path fill="#FFFFFF" d="M199.887,155.536c-0.38,0.951-1.671,1.762-2.796,1.762h-6.987l1.327-3.31h3.469l-0.416,1.046h1.985
		l0.883-2.192h-3.509c-1.309,0-1.812-0.998-1.389-2.065l1.027-2.542c0.401-1.017,1.873-1.686,3.096-1.686h6.468l-1.267,3.164h-3.176
		l0.384-0.947h-2.069l-0.82,2.044h3.675c1.189,0,1.646,0.9,1.255,1.881L199.887,155.536"/>
	<path fill="#231F20" d="M135.564,183.589v-0.521h2.68v0.521h-1.027v2.626h-0.622v-2.626H135.564z M139.684,183.068l0.804,2.253
		l0.795-2.253h0.908v3.146h-0.579v-2.539l-0.864,2.539h-0.514l-0.875-2.539v2.539h-0.579v-3.146H139.684z"/>
</g>
</svg>
